# xmcd
#
# Track frame offsets:
#	150
#	9665
#	19595
#	30540
#	46690
#	61042
#	72212
#	89602
#	103177
#	113577
#
# Disc length: 1688
#
# Revision: 1
# Processed by: cddbd v1.5.1PL0 Copyright (c) Steve Scherf et al.
# Submitted via: FreeRIP 2.90 
# Normalized: r0:DSETVAR1,TDELIM( - ),TSWAP
#
DISCID=7206960a
DTITLE=Various Artist - Country Christmas - Disc 2
DYEAR=2002
DGENRE=Country
TTITLE0=Charley Pride - Christmas In My Home Town
TTITLE1=Porter Wagoner - Frosty The Snowman
TTITLE2=Eddir Rabbitt - Jingle Bell Rock
TTITLE3=Deborah Allen - Rockin' Little Christmas
TTITLE4=Jim Ed Brown and Helen Cornelius - Fall Softly Snow
TTITLE5=Willie Nelson - Pretty Paper
TTITLE6=Dolly Parton - Hard Candy Christmas
TTITLE7=Dottie West - You Are My Christmas Carol
TTITLE8=Waylon Jennings and Jessi Colter - Silent Night, Holy Night
TTITLE9=Oak Ridgge Boys - Go Tell It On The Mountain
EXTD=
EXTT0=
EXTT1=
EXTT2=
EXTT3=
EXTT4=
EXTT5=
EXTT6=
EXTT7=
EXTT8=
EXTT9=
PLAYORDER=
